<svg xmlns="http://www.w3.org/2000/svg" width="1280" height="720" viewBox="0 0 1280 720" role="img">
  <defs>
    <linearGradient id="wall" x1="0" y1="0" x2="0" y2="1">
      <stop offset="0" stop-color="#f4f1ea"/><stop offset="1" stop-color="#e6e0d5"/>
    </linearGradient>
    <linearGradient id="floor" x1="0" y1="0" x2="0" y2="1">
      <stop offset="0" stop-color="#b79572"/><stop offset="1" stop-color="#8f6d4c"/>
    </linearGradient>
    <radialGradient id="day" cx="0.24" cy="0.22" r="0.85">
      <stop offset="0" stop-color="#ffffff" stop-opacity="0.36"/>
      <stop offset="1" stop-color="#ffffff" stop-opacity="0"/>
    </radialGradient>
    <radialGradient id="mark" cx="0.5" cy="0.5" r="0.5">
      <stop offset="0" stop-color="#5d4326" stop-opacity="0.85"/>
      <stop offset="0.6" stop-color="#6b4d2d" stop-opacity="0.45"/>
      <stop offset="1" stop-color="#6b4d2d" stop-opacity="0"/>
    </radialGradient>
  </defs>
  <rect width="1280" height="720" fill="url(#wall)"/>

  <rect y="518.4" width="1280" height="201.60000000000002" fill="url(#floor)"/>
  <rect y="505.44" width="1280" height="12.959999999999999" fill="#d9d2c5"/>
  
  <rect x="89.60000000000001" y="115.2" width="281.6" height="259.2" fill="#dce7f0" stroke="#b9c4cd" stroke-width="6"/>
  <line x1="230.40000000000003" y1="115.2" x2="230.40000000000003" y2="374.4" stroke="#b9c4cd" stroke-width="5"/>
  <line x1="89.60000000000001" y1="244.8" x2="371.20000000000005" y2="244.8" stroke="#b9c4cd" stroke-width="5"/>
  <rect x="512" y="360" width="384" height="144" rx="10" fill="#9aa6b1"/>
  <rect x="512" y="360" width="384" height="43.199999999999996" rx="10" fill="#8593a0"/>
  <rect x="1024" y="158.4" width="166.4" height="360" fill="#9b7551"/>
  <rect x="1024" y="158.4" width="16.64" height="360" fill="#7d5c3e"/>
  
  <rect width="1280" height="720" fill="url(#day)"/>

  <g opacity="0.5">
    <rect x="45" y="659" width="7" height="30" fill="#8a5a3c"/>
    <text x="61" y="683"
      font-family="system-ui, -apple-system, sans-serif" font-size="21"
      letter-spacing="2.5" fill="#6f4a31" font-weight="600">PLACEHOLDER</text>
    <text x="61" y="707"
      font-family="system-ui, -apple-system, sans-serif" font-size="17"
      letter-spacing="1.4" fill="#6f4a31">not a real photograph</text>
  </g>
</svg>
